<svg id="Layer_1" data-name="Layer 1" xmlns="http://www.w3.org/2000/svg" viewBox="0 0 73.2 89.61"><defs><style>.cls-1,.cls-2{fill:none;}.cls-1{stroke:#000;}.cls-1,.cls-2,.cls-3{stroke-miterlimit:10;}.cls-2,.cls-3{stroke:#ffda9f;}.cls-3{fill:#fff;}</style></defs><title>heads</title><path class="cls-1" d="M41.61,203.92" transform="translate(-8.3 -13.35)"/><path class="cls-2" d="M41.22,99.18" transform="translate(-8.3 -13.35)"/><path class="cls-2" d="M15.93,96.28c-1-4,.42-9.47-.71-19.82C13.6,61.69,9.29,60.62,8.9,47.65,8.7,41.16,8.3,32,14.05,24.23A25.53,25.53,0,0,1,30.21,14.15,25.38,25.38,0,0,1,49,18.84c2.11,1.57,7.35,5.46,8.43,11.71,1,5.74-2.64,7.05-1.87,12.65,1.09,8,9.54,12.58,8,15-.6.91-2.92,1.93-4.92,2.11a2.93,2.93,0,0,0-1.87.47A4,4,0,0,0,55.74,64h0s1,.51.94.94c0,.13-.11.29-.47.47.39.18.46.41.47.47.08.34-.23.74-.47.94s-.43.26-.47.46c0,0,0,.13,0,.27a.39.39,0,0,0,0,.2C56,68.47,58.45,71.65,59,73a5.56,5.56,0,0,1-1.4,5.62c-1.65,1.55-4.16,1.17-10.31,0C36,76.39,34.54,75.76,33.72,76.69,31.44,79.3,37.28,90.22,39.81,95" transform="translate(-8.3 -13.35)"/><path class="cls-2" d="M17.56,99.41" transform="translate(-8.3 -13.35)"/><path class="cls-3" d="M66.75,77.86" transform="translate(-8.3 -13.35)"/><path class="cls-1" d="M33.5,215.5" transform="translate(-8.3 -13.35)"/><path class="cls-2" d="M24.83,99.09c-1-4,.42-9.47-.71-19.82C22.5,64.5,18.19,63.43,17.8,50.46,17.6,44,17.2,34.8,23,27A25.53,25.53,0,0,1,39.11,17a25.38,25.38,0,0,1,18.74,4.69c2.12,1.57,7.36,5.46,8.43,11.71,1,5.74-2.64,7-1.87,12.65,1.09,8,9.54,12.58,8,15-.6.91-2.92,1.93-4.92,2.11a3,3,0,0,0-1.87.47,4,4,0,0,0-.94,3.27h0s1,.5.94.93c0,.13-.1.29-.47.47.39.18.46.41.47.47.08.34-.23.74-.47.94s-.43.26-.47.46c0,0,0,.13,0,.27a.39.39,0,0,0,0,.2c.28.68,2.71,3.86,3.28,5.16a5.56,5.56,0,0,1-1.4,5.62c-1.65,1.55-4.16,1.17-10.31,0C44.86,79.2,43.44,78.57,42.62,79.5,40.34,82.11,46.18,93,48.71,97.77" transform="translate(-8.3 -13.35)"/><path class="cls-2" d="M33.26,102.83c-1-4,.43-9.46-.71-19.81-1.62-14.78-5.93-15.85-6.32-28.81-.2-6.49-.6-15.66,5.15-23.43A25.56,25.56,0,0,1,47.54,20.71,25.31,25.31,0,0,1,66.28,25.4c2.12,1.57,7.36,5.46,8.43,11.71,1,5.74-2.63,7-1.87,12.65,1.1,8,9.54,12.58,8,15-.6.91-2.91,1.93-4.91,2.1a3.09,3.09,0,0,0-1.88.47,4,4,0,0,0-.94,3.28h0s1,.51.94.94c0,.13-.1.29-.47.47.39.18.46.41.47.47a1.09,1.09,0,0,1-.47.93c-.2.17-.43.27-.47.47a1.5,1.5,0,0,0,0,.27.47.47,0,0,0,0,.2c.29.68,2.72,3.85,3.28,5.15A5.52,5.52,0,0,1,75,85.12c-1.65,1.56-4.16,1.18-10.31,0C53.29,83,51.87,82.32,51.06,83.25c-2.29,2.6,3.55,13.53,6.09,18.27" transform="translate(-8.3 -13.35)"/></svg>